<?xml version="1.0" encoding="UTF-8" standalone="no"?>
<svg
   width="100%"
   viewBox="0 0 220 110"
   version="1.1"
   id="svg15"
   sodipodi:docname="dribbling__tight_control__drill_3.svg"
   inkscape:version="1.4.3 (0d15f75, 2025-12-25)"
   xmlns:inkscape="http://www.inkscape.org/namespaces/inkscape"
   xmlns:sodipodi="http://sodipodi.sourceforge.net/DTD/sodipodi-0.dtd"
   xmlns="http://www.w3.org/2000/svg"
   xmlns:svg="http://www.w3.org/2000/svg">
  <defs
     id="defs15" />
  <sodipodi:namedview
     id="namedview15"
     pagecolor="#ffffff"
     bordercolor="#000000"
     borderopacity="0.25"
     inkscape:showpageshadow="2"
     inkscape:pageopacity="0.0"
     inkscape:pagecheckerboard="0"
     inkscape:deskcolor="#d1d1d1"
     inkscape:zoom="4"
     inkscape:cx="90"
     inkscape:cy="54.875"
     inkscape:window-width="2560"
     inkscape:window-height="1382"
     inkscape:window-x="0"
     inkscape:window-y="30"
     inkscape:window-maximized="1"
     inkscape:current-layer="svg15" />
  <text
     x="110"
     y="10"
     text-anchor="middle"
     font-size="7"
     fill="#aaa"
     id="text1">Top-down view · random cones · freestyle dribble</text>
  <polygon
     points="49,37 45,28 41,37 "
     fill="#f2a623"
     id="polygon1"
     transform="translate(-10)" />
  <polygon
     points="74,31 70,22 66,31 "
     fill="#f2a623"
     id="polygon2"
     transform="translate(-10)" />
  <polygon
     points="94,47 90,38 86,47 "
     fill="#f2a623"
     id="polygon3"
     transform="translate(-10)" />
  <polygon
     points="55,50 51,59 59,59 "
     fill="#f2a623"
     id="polygon4"
     transform="translate(-17.5,-0.25)" />
  <polygon
     points="82,64 78,55 74,64 "
     fill="#f2a623"
     id="polygon5"
     transform="translate(-10)" />
  <polygon
     points="109,34 105,25 101,34 "
     fill="#f2a623"
     id="polygon6"
     transform="translate(-10)" />
  <polygon
     points="119,57 115,48 111,57 "
     fill="#f2a623"
     id="polygon7"
     transform="translate(-10)" />
  <polygon
     points="134,39 130,30 126,39 "
     fill="#f2a623"
     id="polygon8"
     transform="translate(-10)" />
  <polygon
     points="149,64 145,55 141,64 "
     fill="#f2a623"
     id="polygon9"
     transform="translate(-10)" />
  <polygon
     points="164,47 160,38 156,47 "
     fill="#f2a623"
     id="polygon10"
     transform="translate(-10)" />
  <polygon
     points="42,77 38,68 34,77 "
     fill="#f2a623"
     id="polygon11"
     transform="translate(-10)" />
  <polygon
     points="104,79 100,70 96,79 "
     fill="#f2a623"
     id="polygon12"
     transform="translate(-10)" />
  <polygon
     points="169,77 165,68 161,77 "
     fill="#f2a623"
     id="polygon13"
     transform="translate(-110.75,-30)" />
  <path
     d="M 20,50 Q 35,22 60,35 80,22 95,38 68,55 80,70 105,55 120,45 135,28 150,42 155,65 135,72 110,82 90,72 70,82 45,75 25,70 20,50 Z"
     fill="none"
     stroke="#3b8bd4"
     stroke-width="1.2"
     stroke-dasharray="5, 2"
     id="path13" />
  <rect
     x="156"
     y="14"
     width="60"
     height="26"
     rx="4"
     fill="none"
     stroke="#f2a623"
     stroke-width="1"
     id="rect13" />
  <text
     x="186"
     y="24"
     text-anchor="middle"
     font-size="8px"
     fill="#f2a623"
     id="text13">15s work</text>
  <text
     x="186"
     y="35"
     text-anchor="middle"
     font-size="8px"
     fill="#f2a623"
     id="text14">25s rest</text>
  <text
     x="90"
     y="98"
     text-anchor="middle"
     font-size="7"
     fill="#aaa"
     id="text15">Random cones · no fixed path · L &amp; R foot</text>
  <polygon
     points="169,77 165,68 161,77 "
     fill="#f2a623"
     id="polygon15"
     transform="translate(-111,-5.75)" />
  <polygon
     points="169,77 165,68 161,77 "
     fill="#f2a623"
     id="polygon16"
     transform="translate(-111,-5.75)" />
  <polygon
     points="165,68 161,77 169,77 "
     fill="#f2a623"
     id="polygon17"
     transform="translate(-12,-0.25)" />
  <polygon
     points="51,59 59,59 55,50 "
     fill="#f2a623"
     id="polygon18"
     transform="translate(57.5,12.5)" />
</svg>
