<?xml version="1.0" encoding="UTF-8" standalone="no"?>
<svg
   width="100%"
   viewBox="0 0 220 100"
   version="1.1"
   id="svg14"
   sodipodi:docname="dribbling__anticipation__drill_1.svg"
   inkscape:version="1.4.3 (0d15f75, 2025-12-25)"
   xmlns:inkscape="http://www.inkscape.org/namespaces/inkscape"
   xmlns:sodipodi="http://sodipodi.sourceforge.net/DTD/sodipodi-0.dtd"
   xmlns="http://www.w3.org/2000/svg"
   xmlns:svg="http://www.w3.org/2000/svg">
  <sodipodi:namedview
     id="namedview14"
     pagecolor="#ffffff"
     bordercolor="#000000"
     borderopacity="0.25"
     inkscape:showpageshadow="2"
     inkscape:pageopacity="0.0"
     inkscape:pagecheckerboard="0"
     inkscape:deskcolor="#d1d1d1"
     inkscape:zoom="4"
     inkscape:cx="110"
     inkscape:cy="49.875"
     inkscape:window-width="2560"
     inkscape:window-height="1382"
     inkscape:window-x="0"
     inkscape:window-y="30"
     inkscape:window-maximized="1"
     inkscape:current-layer="svg14" />
  <defs
     id="defs1">
    <marker
       id="arr"
       viewBox="0 0 10 10"
       refX="8"
       refY="5"
       markerWidth="5"
       markerHeight="5"
       orient="auto-start-reverse">
      <path
         d="M2 1L8 5L2 9"
         fill="none"
         stroke="context-stroke"
         stroke-width="1.5"
         stroke-linecap="round"
         stroke-linejoin="round"
         id="path1" />
    </marker>
  </defs>
  <line
     x1="10"
     y1="72"
     x2="210"
     y2="72"
     stroke="#aaa"
     stroke-width="0.6"
     id="line1" />
  <polygon
     points="20,63 16,72 24,72"
     fill="#F2A623"
     id="polygon1" />
  <polygon
     points="40,63 36,72 44,72"
     fill="#F2A623"
     id="polygon2" />
  <polygon
     points="60,63 56,72 64,72"
     fill="#F2A623"
     id="polygon3" />
  <polygon
     points="80,59 74,70 86,70"
     fill="#D85A30"
     id="polygon4" />
  <polygon
     points="100,59 94,70 106,70"
     fill="#D85A30"
     id="polygon5" />
  <polygon
     points="120,59 114,70 126,70"
     fill="#D85A30"
     id="polygon6" />
  <polygon
     points="140,63 136,72 144,72"
     fill="#F2A623"
     id="polygon7" />
  <polygon
     points="160,63 156,72 164,72"
     fill="#F2A623"
     id="polygon8" />
  <polygon
     points="180,63 176,72 184,72"
     fill="#F2A623"
     id="polygon9" />
  <polygon
     points="200,63 196,72 204,72"
     fill="#F2A623"
     id="polygon10" />
  <path
     d="M10,68 Q20,55 30,68 Q40,80 50,68 Q60,55 70,68"
     fill="none"
     stroke="#888"
     stroke-width="1.2"
     stroke-dasharray="3 2"
     id="path10" />
  <path
     d="m 70,66 c 6.666667,-11.041994 14.499024,-12.209707 20,0 4.941965,10.968953 13.66386,11.750189 20,0 5.36396,-9.947305 12.86078,-11.307842 20,0"
     fill="none"
     stroke="#d85a30"
     stroke-width="2"
     marker-end="url(#arr)"
     id="path11"
     sodipodi:nodetypes="cssc" />
  <path
     d="M130,68 Q140,55 150,68 Q160,80 170,68 Q180,55 190,68 Q200,80 210,68"
     fill="none"
     stroke="#888"
     stroke-width="1.2"
     stroke-dasharray="3 2"
     marker-end="url(#arr)"
     id="path12" />
  <text
     x="95"
     y="40"
     text-anchor="middle"
     font-size="12"
     fill="#D85A30"
     id="text12">♪</text>
  <text
     x="95"
     y="52"
     text-anchor="middle"
     font-size="7"
     fill="#D85A30"
     id="text13">chime → burst!</text>
  <text
     x="110"
     y="88"
     text-anchor="middle"
     font-size="7"
     fill="#aaa"
     id="text14">Orange = burst cones · 1 ft apart · 6–8 reps per foot</text>
</svg>
