<?xml version="1.0" encoding="UTF-8" standalone="no"?>
<svg
   width="100%"
   viewBox="0 0 220 105"
   version="1.1"
   id="svg13"
   sodipodi:docname="dribbling__anticipation__drill_2.svg"
   inkscape:version="1.4.3 (0d15f75, 2025-12-25)"
   xmlns:inkscape="http://www.inkscape.org/namespaces/inkscape"
   xmlns:sodipodi="http://sodipodi.sourceforge.net/DTD/sodipodi-0.dtd"
   xmlns="http://www.w3.org/2000/svg"
   xmlns:svg="http://www.w3.org/2000/svg">
  <sodipodi:namedview
     id="namedview13"
     pagecolor="#ffffff"
     bordercolor="#000000"
     borderopacity="0.25"
     inkscape:showpageshadow="2"
     inkscape:pageopacity="0.0"
     inkscape:pagecheckerboard="0"
     inkscape:deskcolor="#d1d1d1"
     inkscape:zoom="4"
     inkscape:cx="90"
     inkscape:cy="52.375"
     inkscape:window-width="2560"
     inkscape:window-height="1382"
     inkscape:window-x="0"
     inkscape:window-y="30"
     inkscape:window-maximized="1"
     inkscape:current-layer="svg13" />
  <defs
     id="defs1">
    <marker
       id="arr"
       viewBox="0 0 10 10"
       refX="8"
       refY="5"
       markerWidth="5"
       markerHeight="5"
       orient="auto-start-reverse">
      <path
         d="M2 1L8 5L2 9"
         fill="none"
         stroke="context-stroke"
         stroke-width="1.5"
         stroke-linecap="round"
         stroke-linejoin="round"
         id="path1" />
    </marker>
  </defs>
  <text
     x="110"
     y="10"
     text-anchor="middle"
     font-size="7"
     fill="#aaa"
     id="text1">Top-down view</text>
  <polygon
     points="25,29 21,38 29,38"
     fill="#F2A623"
     id="polygon1" />
  <polygon
     points="55,29 51,38 59,38"
     fill="#F2A623"
     id="polygon2" />
  <polygon
     points="85,25 79,36 91,36"
     fill="#D85A30"
     id="polygon3" />
  <polygon
     points="115,29 111,38 119,38"
     fill="#F2A623"
     id="polygon4" />
  <polygon
     points="145,29 141,38 149,38"
     fill="#F2A623"
     id="polygon5" />
  <polygon
     points="40,60 36,69 44,69"
     fill="#1D9E75"
     id="polygon6" />
  <polygon
     points="70,56 64,67 76,67"
     fill="#D85A30"
     id="polygon7" />
  <polygon
     points="64,67 76,67 70,56 "
     fill="#d85a30"
     id="polygon7-4"
     transform="translate(29.75,1.75)" />
  <polygon
     points="130,60 126,69 134,69"
     fill="#1D9E75"
     id="polygon9" />
  <polygon
     points="160,60 156,69 164,69"
     fill="#1D9E75"
     id="polygon10" />
  <path
     d="M10,34 L25,34 L40,64 L55,34 L70,62 L85,34 L100,64 L115,34 L130,64 L145,34 L160,64 L175,64"
     fill="none"
     stroke="#3B8BD4"
     stroke-width="1.4"
     marker-end="url(#arr)"
     id="path10" />
  <text
     x="69"
     y="20"
     text-anchor="middle"
     font-size="11px"
     fill="#d85a30"
     id="text10">♪</text>
  <text
     x="69"
     y="30"
     text-anchor="middle"
     font-size="7px"
     fill="#d85a30"
     id="text11">burst!</text>
  <text
     x="110"
     y="82"
     text-anchor="middle"
     font-size="7"
     fill="#aaa"
     id="text12">Both feet · chime = burst next 3 cones</text>
  <text
     x="110"
     y="94"
     text-anchor="middle"
     font-size="7"
     fill="#D85A30"
     id="text13">Orange = example burst cones</text>
</svg>
